<?xml version="1.0" standalone="no"?>
<!DOCTYPE svg PUBLIC "-//W3C//DTD SVG 20010904//EN"
 "http://www.w3.org/TR/2001/REC-SVG-20010904/DTD/svg10.dtd">
<svg version="1.0" xmlns="http://www.w3.org/2000/svg"
 width="626.000000pt" height="626.000000pt" viewBox="0 0 626.000000 626.000000"
 preserveAspectRatio="xMidYMid meet">
<metadata>
Created by potrace 1.16, written by Peter Selinger 2001-2019
</metadata>
<g transform="translate(0.000000,626.000000) scale(0.100000,-0.100000)"
fill="#000000" stroke="none">
<path d="M3281 5524 c-24 -7 -78 -13 -120 -13 -61 1 -94 -5 -166 -30 -49 -18
-144 -43 -210 -57 -179 -36 -267 -62 -400 -116 l-120 -49 -217 1 -218 1 0 -40
0 -40 143 -3 c96 -2 136 -6 122 -12 -85 -39 -393 -284 -378 -300 4 -3 0 -6 -8
-7 -8 0 -49 -40 -91 -87 -95 -107 -138 -165 -74 -99 26 26 50 47 53 47 3 0 18
14 33 30 15 17 32 30 37 30 5 0 23 14 41 30 18 17 37 30 41 30 4 0 16 8 27 18
10 10 37 29 59 42 51 31 66 46 57 55 -4 5 -1 5 6 1 7 -4 23 -1 35 6 12 8 31
17 42 21 15 5 14 2 -5 -11 -123 -85 -244 -186 -345 -287 l-120 -120 108 -3
107 -3 0 -34 0 -35 -132 0 c-106 0 -135 -3 -149 -16 -13 -11 -48 -17 -133 -21
-64 -3 -116 -10 -116 -14 0 -5 47 -9 105 -9 58 0 105 -2 105 -4 0 -3 -23 -40
-50 -83 l-50 -78 71 -3 c49 -2 69 -6 66 -15 -2 -8 -29 -12 -78 -12 l-74 0 -32
-60 c-18 -33 -33 -63 -33 -67 0 -5 29 -8 65 -8 l65 0 0 -30 0 -30 -79 0 -79 0
-20 -47 c-23 -55 -72 -208 -72 -226 0 -9 46 -12 178 -12 230 0 224 1 220 -42
l-3 -35 -178 1 c-98 1 -193 -1 -211 -4 l-34 -7 -16 -103 c-9 -57 -16 -119 -16
-139 0 -64 -4 -66 -96 -66 l-84 0 0 -55 0 -55 85 0 85 0 0 -40 0 -40 -204 0
c-126 0 -207 -4 -211 -10 -4 -7 67 -10 204 -10 l211 0 0 -25 0 -25 -180 0
c-113 0 -180 -4 -180 -10 0 -6 69 -10 186 -10 171 0 185 -1 182 -17 -3 -16
-21 -18 -185 -21 -179 -2 -182 -3 -185 -25 -2 -12 -1 -34 1 -49 l3 -28 188 0
c203 0 200 1 200 -56 l0 -24 -166 0 c-107 0 -163 -3 -159 -10 4 -6 71 -10 170
-10 l163 0 9 -37 9 -38 72 -3 c69 -3 72 -4 72 -27 0 -24 -3 -25 -65 -25 l-65
0 6 -27 c4 -16 12 -44 19 -63 l12 -35 131 -3 132 -3 0 -54 0 -55 -105 0 c-89
0 -105 -2 -105 -16 0 -20 99 -217 152 -302 44 -70 110 -160 165 -226 18 -21
42 -67 53 -102 25 -74 101 -186 158 -231 52 -42 154 -97 218 -117 57 -19 64
-29 64 -106 0 -25 3 -62 6 -83 l7 -37 148 0 149 0 0 -45 0 -45 -146 0 -147 0
5 -44 c6 -49 30 -88 68 -108 32 -17 1953 -25 2010 -9 20 6 49 24 64 40 27 28
30 39 42 168 7 76 13 162 14 191 l0 52 -150 0 -150 0 0 35 0 35 195 0 195 -1
62 33 c75 40 155 112 186 167 l23 41 -105 0 -106 0 0 40 0 40 120 0 c66 0 120
4 120 9 0 5 27 41 60 80 33 40 83 105 111 144 39 55 49 65 43 42 -4 -16 -10
-34 -13 -40 -12 -18 -31 -65 -26 -65 9 0 122 157 155 214 l31 56 100 0 99 0 0
80 0 80 -55 0 c-57 0 -63 6 -45 41 10 17 22 19 130 19 113 0 120 1 120 20 0
19 -7 20 -108 20 -111 0 -129 4 -112 25 29 35 95 314 106 451 l7 81 -54 6
c-30 4 -143 7 -251 7 l-198 0 0 54 0 54 249 3 c137 2 253 7 257 12 7 7 -6 187
-28 378 l-11 96 -66 7 c-36 3 -96 6 -133 6 -66 0 -68 1 -68 25 0 24 3 25 58
25 31 0 88 3 125 7 75 7 70 -1 52 76 l-7 27 101 0 101 0 0 40 0 40 -109 0
-109 0 -17 53 c-10 28 -21 56 -26 61 -5 5 -32 10 -61 11 l-51 1 -34 64 c-19
35 -32 69 -29 75 2 7 25 11 61 10 48 -2 55 0 49 14 -18 46 -17 46 144 49 l153
3 -3 27 -3 27 -171 3 -171 2 -11 25 c-11 24 -10 25 23 25 l35 0 0 65 0 65 -75
0 c-75 0 -76 1 -93 31 -71 129 -90 154 -134 176 -43 20 -152 118 -194 173 -10
14 -36 36 -56 50 -21 14 -38 28 -38 33 0 4 27 7 60 7 33 0 60 4 60 10 0 6 -31
10 -74 10 -73 0 -76 1 -121 40 -26 22 -62 47 -80 54 -19 8 -53 32 -77 54 -49
45 -107 76 -159 86 -20 3 -81 26 -136 51 -60 27 -125 48 -165 54 -75 10 -140
39 -117 51 8 4 54 8 104 8 l89 0 8 28 c4 16 4 32 0 36 -4 4 -93 9 -197 11
-201 5 -217 6 -210 18 14 21 -59 24 -124 3z m47 -1104 c170 -11 379 -34 388
-43 10 -10 -32 -482 -57 -636 -7 -46 -18 -75 -40 -102 -50 -64 -159 -158 -259
-224 -183 -123 -245 -134 -370 -71 -153 78 -389 266 -417 334 -26 63 -44 228
-50 463 l-6 235 119 18 c231 34 438 42 692 26z m-1620 -500 c7 0 12 -14 12
-35 l0 -35 -115 -1 c-213 -2 -195 -5 -195 34 0 19 2 36 5 39 3 3 67 3 143 1
75 -2 143 -3 150 -3z m-218 -770 l0 -40 -125 0 -125 0 0 40 0 40 125 0 125 0
0 -40z m1777 -1346 c-3 -19 1 -24 22 -26 22 -2 26 -8 26 -33 0 -28 -2 -30 -40
-30 -27 0 -53 -9 -78 -26 l-38 -27 44 -25 c35 -21 52 -25 81 -20 35 6 38 4 34
-18 -1 -13 -13 -28 -25 -34 -16 -7 -23 -18 -23 -38 0 -25 -3 -28 -27 -25 -22
2 -29 9 -33 32 -3 21 -19 40 -51 62 l-45 33 -53 -35 c-31 -21 -51 -42 -50 -52
3 -37 -1 -43 -28 -40 -23 2 -28 8 -28 31 1 15 -5 27 -11 27 -20 0 -44 29 -37
46 4 12 15 15 40 11 26 -5 44 0 74 19 21 13 39 26 39 28 0 14 -80 51 -109 51
-37 0 -58 22 -48 49 4 9 17 16 31 16 19 0 25 6 28 28 3 23 8 27 33 27 31 0 37
-15 22 -60 -6 -17 3 -26 45 -51 l52 -32 48 30 c47 29 48 31 42 69 -6 34 -4 40
17 48 31 11 52 -5 46 -35z"/>
<path d="M2712 4321 c-51 -9 -65 -21 -60 -52 4 -31 29 -37 179 -38 144 -1 192
10 187 43 -2 11 -15 27 -31 34 -32 15 -213 24 -275 13z"/>
<path d="M3285 4320 c-77 -14 -95 -58 -33 -79 41 -14 266 -14 307 0 44 15 43
53 -1 69 -43 15 -210 21 -273 10z"/>
<path d="M1180 1780 l0 -100 65 0 65 0 0 100 0 100 -65 0 -65 0 0 -100z"/>
</g>
</svg>
